<svg width="745" height="221" viewBox="0 0 745 221" fill="none" xmlns="http://www.w3.org/2000/svg">
<path d="M51.3196 44.0161C39.1664 44.0161 27.8639 49.5818 18.7946 60.1574C18.7946 48.0042 17.7013 43.3545 17.7013 43.3545L0 46.4504C0 46.4504 2.44623 53.3039 2.44623 70.1009V220.517L19.6924 217.227V146.452C27.4267 154.423 38.7173 159.279 49.9963 159.279C64.3711 159.279 76.0991 151.965 84.0755 139.15C90.2672 128.952 92.9144 118.784 92.9144 101.107C92.9144 81.4268 88.9322 67.9148 80.7374 57.7232C73.6708 48.8846 62.6047 44.0161 51.3196 44.0161ZM69.8954 131.168C66.1379 139.38 56.8559 144.893 46.6697 144.893C37.3937 144.893 27.8639 139.812 19.6924 130.494V74.9928C28.0942 64.7835 38.0556 59.4898 49.1041 59.4898C57.9606 59.4898 65.937 64.1277 69.4582 71.6547C72.5542 78.2955 74.5511 90.0115 74.5511 103.293C74.5511 115.677 73.2278 124.09 69.8954 131.168Z" fill="white"/>
<path d="M140.262 61.2822C140.929 51.9651 136.717 43.3511 136.717 43.3511L119.465 48.0008C119.465 48.0008 123.217 55.3209 123.217 71.4264V156.373H140.48V87.3723C140.48 78.3035 141.81 74.989 146.902 69.9139C151.972 64.7798 158.618 61.938 165.247 61.938C167.032 61.938 169.023 62.3693 170.128 62.8242L177.212 44.013C177.212 44.013 174.104 42.9199 171.221 42.9199C159.954 42.9199 148.226 50.0096 140.262 61.2822Z" fill="white"/>
<path d="M384.949 102.187V156.379H402.851V110.015V43.812L384.949 46.6538V102.187Z" fill="white"/>
<path d="M543.34 79.6283V156.379H561.265V114.743V43.812L543.34 46.6538V79.6283Z" fill="white"/>
<path d="M394.241 0C387.464 0 382.082 5.54174 382.082 12.3183C382.082 18.9236 387.464 24.3058 394.241 24.3058C401 24.3058 406.371 18.9236 406.371 12.1293C406.371 5.35868 401 0 394.241 0Z" fill="white"/>
<path d="M552.626 0C545.873 0 540.484 5.54174 540.484 12.3183C540.484 18.9236 545.873 24.3058 552.626 24.3058C559.408 24.3058 564.773 18.9236 564.773 12.1293C564.773 5.35868 559.408 0 552.626 0Z" fill="white"/>
<path d="M678.954 0C672.183 0 666.812 5.54174 666.812 12.3183C666.812 18.9236 672.183 24.3058 678.954 24.3058C685.737 24.3058 691.101 18.9236 691.101 12.1293C691.101 5.35868 685.737 0 678.954 0Z" fill="white"/>
<path d="M669.66 85.1915V156.379H687.591V117.085V43.812L669.66 46.6538V85.1915Z" fill="white"/>
<path d="M234.292 42.9116C205.312 42.9116 187.375 64.7716 187.375 100.645C187.375 136.903 204.627 159.266 234.948 159.266C262.598 159.266 282.285 139.804 282.285 103.056C282.285 85.1427 278.97 72.0798 272.116 62.1662C264.589 51.2893 252.643 42.9116 234.292 42.9116ZM259.296 128.325C255.52 138.912 246.894 144.879 235.385 144.879C225.879 144.879 217.029 140.484 213.046 133.837C208.851 126.966 206.187 113.253 206.187 97.7564C206.187 84.6877 207.953 75.8847 211.492 69.0196C215.25 61.6994 224.337 57.0556 234.068 57.0556C243.131 57.0556 252.862 61.4985 257.506 71.1996C261.056 78.5019 262.598 88.9356 262.598 104.373C262.598 115.256 261.706 121.454 259.296 128.325Z" fill="white"/>
<path d="M477.184 119.468C473.657 129.388 471.878 138.02 471.878 138.02H471.429C471.429 138.02 469.226 128.324 466.142 119.232L440.471 43.3545L422.77 47.0825L462.378 157.499H479.405L520.787 46.208H502.418L477.184 119.468Z" fill="white"/>
<path d="M640.462 59.2615L645.773 46.2104H617.609V10.4429L601.302 13.8105V46.2104H586.035V59.2615H600.416V134.944C600.416 146.01 603.299 153.088 611.027 156.833C615.239 158.824 619.659 159.941 625.413 159.941C633.129 159.941 639.345 158.375 644.887 155.486L642.441 144.426C639.345 146.01 636.473 146.666 631.611 146.666C620.764 146.666 617.449 142.435 617.449 130.282V59.2615H640.462Z" fill="white"/>
<path d="M355.427 59.2615L360.75 46.2104H332.585V10.4429L316.279 13.8105V46.2104H301V59.2615H315.375V134.944C315.375 146.01 318.27 153.088 326.009 156.833C330.222 158.824 334.641 159.941 340.39 159.941C348.118 159.941 354.322 158.375 359.869 155.486L357.418 144.426C354.322 146.01 351.432 146.666 346.582 146.666C335.735 146.666 332.426 142.435 332.426 130.282V59.2615H355.427Z" fill="white"/>
<path d="M729.535 43.4893C721.412 43.4893 714.641 49.8818 714.641 58.3834C714.641 66.8616 721.412 73.2779 729.535 73.2779C737.641 73.2779 744.448 66.8616 744.448 58.3834C744.448 49.8818 737.641 43.4893 729.535 43.4893ZM729.535 71.1156C722.705 71.1156 717.294 65.5795 717.294 58.3834C717.294 51.1696 722.705 45.6397 729.535 45.6397C736.336 45.6397 741.789 51.1696 741.789 58.3834C741.789 65.5795 736.336 71.1156 729.535 71.1156Z" fill="white"/>
<path d="M731.967 60.6977C731.718 60.3017 731.293 59.7818 730.537 59.191C733.296 59.2677 734.98 57.1823 734.98 54.6121C734.98 53.0171 734.271 51.8886 733.503 51.2151C732.693 50.453 731.547 50.0039 729.579 50.0039H724.93V66.5523H727.258V59.2264C727.931 59.2677 728.286 59.4982 728.735 59.9888C729.934 61.3002 730.342 61.9914 731.618 64.1066C732.262 65.2349 732.51 65.6189 732.983 66.5523H735.789C735.464 66.0326 734.105 63.8642 733.39 62.7477C732.823 61.8672 732.327 61.1582 731.967 60.6977ZM727.258 57.6607V51.8886H728.977C729.851 51.8886 730.537 52.0126 731.015 52.2135C731.901 52.5741 732.545 53.4897 732.545 54.6476C732.545 55.6283 732.221 56.4141 731.742 56.8928C731.151 57.4186 730.342 57.6607 728.871 57.6607H727.258Z" fill="white"/>
</svg>
